<?xml version="1.0" encoding="UTF-8" standalone="no"?>
<!-- Uploaded to: SVG Repo, www.svgrepo.com, Generator: SVG Repo Mixer Tools -->

<svg
   width="800px"
   height="800px"
   viewBox="0 0 128 128"
   aria-hidden="true"
   role="img"
   class="iconify iconify--noto"
   preserveAspectRatio="xMidYMid meet"
   version="1.1"
   id="svg13"
   sodipodi:docname="strongAgree copy 2.svg"
   inkscape:version="1.4.2 (ebf0e940, 2025-05-08)"
   xmlns:inkscape="http://www.inkscape.org/namespaces/inkscape"
   xmlns:sodipodi="http://sodipodi.sourceforge.net/DTD/sodipodi-0.dtd"
   xmlns="http://www.w3.org/2000/svg"
   xmlns:svg="http://www.w3.org/2000/svg">
  <defs
     id="defs13" />
  <sodipodi:namedview
     id="namedview13"
     pagecolor="#ffffff"
     bordercolor="#000000"
     borderopacity="0.25"
     inkscape:showpageshadow="2"
     inkscape:pageopacity="0.0"
     inkscape:pagecheckerboard="0"
     inkscape:deskcolor="#d1d1d1"
     inkscape:zoom="0.1058915"
     inkscape:cx="118.04536"
     inkscape:cy="703.55035"
     inkscape:window-width="1336"
     inkscape:window-height="642"
     inkscape:window-x="0"
     inkscape:window-y="25"
     inkscape:window-maximized="0"
     inkscape:current-layer="svg13" />
  <radialGradient
     id="IconifyId17ecdb2904d178eab21181"
     cx="51.77"
     cy="31.401"
     r="87.039"
     gradientTransform="matrix(-0.67088212,0.74156722,-0.5838334,-0.52818823,141.88308,-2.3040571)"
     gradientUnits="userSpaceOnUse">
    <stop
       stop-color="#FFCA28"
       offset=".6"
       id="stop1" />
    <stop
       stop-color="#FFB300"
       offset="1"
       id="stop2" />
  </radialGradient>
  <path
     d="M 53.482693,109.16167 C 47.117225,103.33392 37.722585,94.414345 29.059546,84.996307 23.098694,78.510164 17.24361,71.473284 14.741713,63.970957 14.036431,61.855259 12.641916,60.235806 11.398957,58.806696 10.871462,58.196984 10.374426,57.628165 9.9992787,57.088383 7.1429625,52.967903 7.4335301,47.550148 10.691362,43.903364 l 21.86633,-24.380956 c 3.024328,-3.372602 7.960807,-4.026954 11.750617,-1.55547 0.06614,0.04611 0.131532,0.0781 0.204359,0.116779 0.529132,0.23435 13.156939,5.848305 25.692989,6.722979 5.898617,0.414147 12.617853,-1.083873 17.974455,-3.997672 5.335786,-2.90563 9.511245,-7.556236 12.863508,-11.2929209 2.16841,-2.407404 4.85811,-5.408493 5.90684,-5.257927 2.53373,0.384554 4.76914,1.429034 6.63414,3.108883 5.73616,5.1667049 6.87291,15.6788269 2.29794,21.2212259 -3.16946,3.847508 -8.34557,7.098834 -13.34325,10.241711 -5.915889,3.728968 -11.030297,6.941667 -12.566774,10.873822 -0.231399,0.585623 -0.06962,1.24276 0.391052,1.657702 l 5.583977,4.693166 0.05201,0.04685 c 6.063095,5.46118 6.552885,14.838776 1.105828,20.901132 L 68.892974,108.39927 c -1.947553,2.16221 -4.606829,3.4411 -7.509451,3.58562 a 10.81,10.81 0 0 1 -7.848818,-2.77637 z"
     fill="url(#IconifyId17ecdb2904d178eab21181)"
     id="path2"
     style="fill:url(#IconifyId17ecdb2904d178eab21181)"
     inkscape:transform-center-x="12.094065"
     inkscape:transform-center-y="0.69552811" />
  <path
     d="m 112.5807,8.4815981 c 5.09716,4.5911399 6.17553,14.2566259 2.14714,19.1473749 -3.01626,3.66249 -8.08234,6.851423 -12.98411,9.932644 -6.142647,3.861184 -11.441444,7.203886 -13.159467,11.591607 a 2.998,2.998 0 0 0 0.789535,3.322098 l 0.08173,0.07362 5.517104,4.632932 0.04458,0.04016 c 5.446378,4.905693 5.893448,13.329625 0.98849,18.79013 L 67.793295,107.40876 c -1.673156,1.85757 -3.97335,2.96193 -6.473101,3.09249 -2.49975,0.13056 -4.901739,-0.71404 -6.766735,-2.39389 l -0.05944,-0.0535 C 48.15084,102.24615 38.785921,93.353345 30.160771,83.982894 24.312848,77.625387 18.571431,70.731264 16.161593,63.500277 15.363514,61.099117 13.789197,59.290795 12.53064,57.834177 12.026174,57.258666 11.558859,56.716617 11.236461,56.237807 8.7783205,52.691309 9.0165531,48.033923 11.813332,44.91395 L 33.672231,20.526301 c 2.522381,-2.815332 6.650114,-3.363716 9.809773,-1.298323 0.12484,0.08553 0.270494,0.16289 0.407981,0.219435 0.536562,0.241042 13.402929,5.948747 26.202096,6.845083 6.168427,0.428377 13.196154,-1.12824 18.793636,-4.174991 5.563282,-3.023723 9.832438,-7.778353 13.265013,-11.604201 1.633,-1.8129839 3.83414,-4.2716629 4.81547,-4.7335989 a 10.97,10.97 0 0 1 5.6145,2.701893 m 2.00779,-2.229079 C 112.61947,4.4789741 110.1463,3.2203301 107.17032,2.7739051 103.3307,2.1955711 97.318621,14.11486 87.466338,19.479728 81.552144,22.698797 74.966184,23.630481 70.311065,23.300081 57.902859,22.432891 45.127921,16.713329 45.127921,16.713329 40.744374,13.855094 34.935964,14.625794 31.43646,18.525944 L 9.5775607,42.913594 c -3.759779,4.204053 -4.0172067,10.391874 -0.8080339,15.032058 1.3015022,1.872136 3.6465682,3.795977 4.5456132,6.503415 2.409837,7.230987 7.721667,14.034257 14.643182,21.560652 8.565708,9.316906 17.842201,18.143531 24.513048,24.259791 l 0.0743,0.0669 c 5.074869,4.57106 12.906378,4.1691 17.476702,-0.91989 L 98.234785,78.019946 C 104.25741,71.318587 103.69812,61.017049 97.018311,55.00038 l -0.08916,-0.08031 -5.546826,-4.659703 c 2.586337,-6.606849 18.670495,-12.226403 25.669035,-20.713507 4.96688,-6.037276 4.03118,-17.444987 -2.46287,-23.2943399 z"
     fill="#eda600"
     id="path3"
     inkscape:transform-center-x="12.087845"
     inkscape:transform-center-y="0.70321688" />
  <path
     d="m 78.668236,52.213112 c -1.949422,4.973344 -7.154808,10.782334 -11.792402,13.092122 -6.701388,3.330991 -15.777761,3.351885 -22.267186,-1.053245 -1.585758,-1.078412 -1.917347,0.978151 -0.339019,2.04987 7.025194,4.766585 17.763017,9.849071 25.015305,6.22024 19.920566,-9.983384 20.136699,-24.418071 14.817857,-24.848338 -2.573207,-0.191314 -4.32815,1.727169 -5.434555,4.539351 z"
     fill="#eda600"
     id="path4"
     inkscape:transform-center-x="10.320643"
     inkscape:transform-center-y="3.2760044" />
  <radialGradient
     id="IconifyId17ecdb2904d178eab21182"
     cx="2459.4"
     cy="-319.18"
     r="20.331"
     gradientTransform="matrix(-1.0846827,-0.8701406,0.42690764,-0.52984242,2912.4829,2044.9765)"
     gradientUnits="userSpaceOnUse">
    <stop
       stop-color="#FFCA28"
       offset=".599"
       id="stop4" />
    <stop
       stop-color="#FFB300"
       offset="1"
       id="stop5" />
  </radialGradient>
  <path
     d="m 88.681718,71.218695 c -6.211699,-5.595033 -12.641756,-13.47281 -8.002023,-19.266417 1.329673,-1.655527 2.996497,-2.549786 5.090426,-2.722878 5.506504,-0.450461 13.903147,4.138283 23.651649,12.919005 3.5368,3.185688 5.90763,5.738367 5.93735,5.765137 0.0297,0.02677 0.0602,0.06766 0.0899,0.09443 l 0.0669,0.06023 c 0.11071,0.08627 0.20731,0.173271 0.31133,0.266967 3.15786,2.844365 3.23233,8.066037 0.17511,11.893521 -3.16356,3.960491 -8.52904,4.941721 -11.95824,2.189416 -0.052,-0.04685 -0.11815,-0.09296 -0.18355,-0.124947 -0.0736,-0.0528 -8.238967,-4.823562 -15.178832,-11.074472 z"
     fill="url(#IconifyId17ecdb2904d178eab21182)"
     id="path5"
     style="fill:url(#IconifyId17ecdb2904d178eab21182)"
     inkscape:transform-center-x="-23.204764"
     inkscape:transform-center-y="9.1579598" />
  <path
     d="m 108.42531,63.269637 c 3.47736,3.132147 5.81773,5.643932 5.84002,5.66401 0.0602,0.06766 0.12705,0.127898 0.19392,0.188131 0.0446,0.04016 0.0892,0.08031 0.13301,0.106344 0.0884,0.06619 0.17016,0.139808 0.24446,0.206734 2.56344,2.308955 2.56989,6.63493 0.0109,9.83453 -1.32967,1.655527 -3.1207,2.747453 -5.05043,3.081905 -1.80336,0.313692 -3.5098,-0.09283 -4.80272,-1.12281 -0.11814,-0.09296 -0.24298,-0.178488 -0.36708,-0.249894 -0.0803,-0.04537 -8.128996,-4.751419 -14.935116,-10.881862 -3.952899,-3.560475 -6.673527,-6.845438 -8.078675,-9.753025 -1.929477,-3.998952 -0.789879,-6.175604 0.240839,-7.454401 1.070136,-1.337501 2.358538,-2.020816 4.050334,-2.165824 5.006248,-0.403091 13.217819,4.166997 22.520508,12.546162 m 2.00779,-2.229079 C 101.94771,53.397582 86.716966,42.007189 79.504892,51.015257 c -5.20418,6.509916 0.883816,14.752514 8.172903,21.317977 7.140482,6.431611 15.435945,11.252223 15.435945,11.252223 4.08607,3.263211 10.38814,2.183498 14.07004,-2.427168 3.5696,-4.456106 3.384,-10.585384 -0.33856,-13.938389 -0.12632,-0.113774 -0.2452,-0.220856 -0.37821,-0.3272 0,0 -2.40055,-2.579449 -6.03394,-5.852142 z"
     fill="#eda600"
     id="path6"
     inkscape:transform-center-x="-23.189088"
     inkscape:transform-center-y="9.1540736" />
  <radialGradient
     id="IconifyId17ecdb2904d178eab21183"
     cx="2557.2"
     cy="-508.52"
     r="18.753"
     gradientTransform="matrix(-1.2594344,-1.1369343,0.45752829,-0.50360748,3552.182,2742.7399)"
     gradientUnits="userSpaceOnUse">
    <stop
       stop-color="#FFCA28"
       offset=".599"
       id="stop6" />
    <stop
       stop-color="#FFB300"
       offset="1"
       id="stop7" />
  </radialGradient>
  <path
     d="M 80.604431,89.554755 C 72.498015,82.253107 64.063424,72.192958 69.912777,65.698909 c 5.849352,-6.494049 16.733443,0.846623 24.839859,8.148275 6.872994,6.190677 12.233194,12.835644 12.285944,12.896615 0.0528,0.06097 0.1055,0.121942 0.16495,0.175483 3.27674,2.951443 2.43907,8.468583 -0.35845,11.574433 -2.95144,3.276755 -8.807763,4.892555 -11.935903,2.074965 -0.05944,-0.0535 -0.125577,-0.0996 -0.191711,-0.14576 -0.08026,-0.0454 -7.247473,-4.684175 -14.113035,-10.868165 z"
     fill="url(#IconifyId17ecdb2904d178eab21183)"
     id="path7"
     style="fill:url(#IconifyId17ecdb2904d178eab21183)"
     inkscape:transform-center-x="-13.178437"
     inkscape:transform-center-y="25.172753" />
  <path
     d="m 93.74205,74.969154 c 6.7764,6.103672 12.06826,12.66016 12.12101,12.721131 0.0988,0.129373 0.211,0.24388 0.32988,0.35097 2.54115,2.28887 1.84656,6.88513 -0.46909,9.456 -2.41604,2.682325 -7.424928,4.119335 -9.817472,1.96431 -0.118884,-0.10708 -0.244461,-0.20673 -0.383423,-0.29153 -0.06613,-0.0461 -7.145662,-4.63284 -13.914631,-10.72982 -5.074869,-4.571058 -8.627632,-8.740131 -10.560959,-12.406089 -2.789697,-5.285195 -1.345188,-7.860131 -0.02005,-9.331323 1.331832,-1.478622 3.735582,-3.176087 9.282639,-0.952159 3.833295,1.54164 8.357226,4.647448 13.432095,9.21851 m 2.007788,-2.229079 c -8.864303,-7.984299 -20.34598,-15.378728 -26.958292,-8.037629 -6.612312,7.341099 1.930567,17.98329 10.8023,25.974279 7.051318,6.3513 14.298053,11.021355 14.298053,11.021355 3.834016,3.45339 10.627712,1.61869 14.054342,-2.185605 3.42662,-3.8043 4.08181,-10.23948 0.24779,-13.692871 0.007,-0.0074 -5.40031,-6.734922 -12.444193,-13.079529 z"
     fill="#eda600"
     id="path8"
     inkscape:transform-center-x="-13.156388"
     inkscape:transform-center-y="25.176491" />
  <radialGradient
     id="IconifyId17ecdb2904d178eab21184"
     cx="2601.3"
     cy="-320.21"
     r="20.446"
     gradientTransform="matrix(-0.96687137,-0.87931027,0.45872456,-0.50252997,2733.2279,2239.3564)"
     gradientUnits="userSpaceOnUse">
    <stop
       stop-color="#FFCA28"
       offset=".599"
       id="stop8" />
    <stop
       stop-color="#FFB300"
       offset="1"
       id="stop9" />
  </radialGradient>
  <path
     d="m 64.532699,119.81452 c -3.12814,-2.81759 -18.756033,-17.33815 -19.225855,-26.468975 -0.08335,-1.59588 0.331913,-2.86378 1.255495,-3.88915 3.528487,-3.887506 12.222773,-0.10735 23.851133,10.36661 4.146086,3.734485 7.088254,6.922915 7.125406,6.956375 0.02972,0.0268 0.06018,0.0677 0.0899,0.0944 1.731989,1.57351 2.738278,3.75845 2.806447,6.14817 0.07634,2.41053 -0.800197,4.74338 -2.446582,6.57123 -3.394636,3.7389 -9.073565,4.14172 -12.669812,0.90249 -0.0654,-0.032 -0.325456,-0.26623 -0.786132,-0.68118 z"
     fill="url(#IconifyId17ecdb2904d178eab21184)"
     id="path9"
     style="fill:url(#IconifyId17ecdb2904d178eab21184)"
     inkscape:transform-center-x="12.598251"
     inkscape:transform-center-y="47.891453" />
  <path
     d="m 69.410316,100.95167 c 4.079214,3.67425 6.990923,6.82178 7.013952,6.85598 0.06018,0.0677 0.127052,0.1279 0.193924,0.18813 1.427348,1.29911 2.250939,3.10416 2.31184,5.08357 0.06311,2.02179 -0.669818,3.98602 -2.062621,5.51739 -2.831718,3.12888 -7.571106,3.48971 -10.580362,0.7792 l -0.05201,-0.0469 c -0.01486,-0.0134 -0.274182,-0.2335 -0.712567,-0.62837 C 52.036546,106.55356 47.005877,97.406055 46.789749,93.268045 c -0.08188,-1.56764 0.458066,-2.3464 0.866316,-2.79964 2.819807,-3.085774 11.143839,0.92614 21.754253,10.483215 m 2.007787,-2.229085 c -7.965241,-7.17449 -20.386443,-16.424557 -25.962873,-10.26339 -7.699468,8.48831 13.719442,28.547995 18.073575,32.469865 0.482967,0.43502 0.75715,0.66853 0.75715,0.66853 l 0.02229,0.0201 c 4.220389,3.80141 10.831429,3.3499 14.788244,-1.01314 3.963508,-4.37047 3.758047,-11.0156 -0.456387,-14.83856 -0.0067,0.007 -2.979319,-3.22189 -7.221999,-7.043385 z"
     fill="#eda600"
     id="path10"
     inkscape:transform-center-x="12.596293"
     inkscape:transform-center-y="47.887597" />
  <radialGradient
     id="IconifyId17ecdb2904d178eab21185"
     cx="2578.2"
     cy="-485.68"
     r="18.611"
     gradientTransform="matrix(-1.2141841,-1.0961762,0.45744656,-0.5036811,3437.5335,2684.8955)"
     gradientUnits="userSpaceOnUse">
    <stop
       stop-color="#FFCA28"
       offset=".599"
       id="stop10" />
    <stop
       stop-color="#FFB300"
       offset="1"
       id="stop11" />
  </radialGradient>
  <path
     d="M 72.374974,105.51966 C 65.695168,99.502985 50.848568,84.757515 57.173097,77.735917 c 5.313943,-5.899628 17.301077,3.309384 23.980883,9.326053 5.907058,5.320635 10.407837,10.558945 10.453156,10.613225 0.03789,0.0476 0.0899,0.0944 0.134483,0.13459 3.098419,2.790825 5.330846,7.574075 1.442432,11.891055 -3.680943,4.08665 -10.222267,4.92395 -13.736781,1.75834 l -0.08916,-0.0803 c -0.03641,-0.0193 -3.104536,-2.36566 -6.983133,-5.85921 z"
     fill="url(#IconifyId17ecdb2904d178eab21185)"
     id="path11"
     style="fill:url(#IconifyId17ecdb2904d178eab21185)"
     inkscape:transform-center-x="0.020063742"
     inkscape:transform-center-y="37.181432" />
  <path
     d="m 82.151181,85.954861 -2.007787,2.229074 c 5.817895,5.24033 10.273355,10.42436 10.311244,10.47195 0.08321,0.10186 0.179801,0.18886 0.276395,0.27587 2.704615,2.436115 4.477319,6.280405 1.331786,9.772625 -3.098685,3.44021 -8.742837,4.23774 -11.618348,1.64769 -0.05944,-0.0535 -0.118885,-0.10708 -0.19245,-0.15988 -0.02972,-0.0268 -3.053261,-2.33294 -6.887276,-5.78633 -4.049493,-3.64748 -9.603426,-9.121105 -13.090307,-14.469015 -3.356879,-5.16352 -4.028052,-8.930804 -2.000187,-11.182174 0.622414,-0.691014 2.516426,-2.793778 8.559045,-0.02928 3.764838,1.722233 8.235967,4.901607 13.295975,9.459284 l 2.02191,-2.229817 m 0,0 c -8.589383,-7.73667 -20.209807,-15.754035 -26.099316,-9.215404 -6.94025,7.705182 6.403639,21.877711 15.312523,29.902176 3.98262,3.58724 7.072296,5.93952 7.072296,5.93952 4.190667,3.77464 11.725865,2.71549 15.855213,-1.86898 4.129349,-4.58447 2.63759,-10.23485 -1.553078,-14.009495 0,0 -4.546835,-5.30671 -10.587638,-10.747814 z"
     fill="#eda600"
     id="path12"
     inkscape:transform-center-x="0.036317582"
     inkscape:transform-center-y="37.171997" />
  <path
     fill="#eda600"
     d="M 15.118696,65.494861 24.208659,48.245899 11.345147,59.53882 Z"
     id="path13"
     inkscape:transform-center-x="57.68946"
     inkscape:transform-center-y="-0.56116067" />
</svg>
