<?xml version="1.0" encoding="UTF-8" standalone="no"?>
<!-- Uploaded to: SVG Repo, www.svgrepo.com, Generator: SVG Repo Mixer Tools -->

<svg
   width="800px"
   height="800px"
   viewBox="0 0 128 128"
   aria-hidden="true"
   role="img"
   class="iconify iconify--noto"
   preserveAspectRatio="xMidYMid meet"
   version="1.1"
   id="svg13"
   sodipodi:docname="strongAgree copy.svg"
   inkscape:version="1.4.2 (ebf0e940, 2025-05-08)"
   xmlns:inkscape="http://www.inkscape.org/namespaces/inkscape"
   xmlns:sodipodi="http://sodipodi.sourceforge.net/DTD/sodipodi-0.dtd"
   xmlns="http://www.w3.org/2000/svg"
   xmlns:svg="http://www.w3.org/2000/svg">
  <defs
     id="defs13" />
  <sodipodi:namedview
     id="namedview13"
     pagecolor="#ffffff"
     bordercolor="#000000"
     borderopacity="0.25"
     inkscape:showpageshadow="2"
     inkscape:pageopacity="0.0"
     inkscape:pagecheckerboard="0"
     inkscape:deskcolor="#d1d1d1"
     inkscape:zoom="0.0325"
     inkscape:cx="384.61538"
     inkscape:cy="400"
     inkscape:window-width="1272"
     inkscape:window-height="615"
     inkscape:window-x="0"
     inkscape:window-y="25"
     inkscape:window-maximized="0"
     inkscape:current-layer="svg13" />
  <radialGradient
     id="IconifyId17ecdb2904d178eab21181"
     cx="51.77"
     cy="31.401"
     r="87.039"
     gradientTransform="matrix(-1,-0.00218,0.00172,-0.7873,148.31999,76.59901)"
     gradientUnits="userSpaceOnUse">
    <stop
       stop-color="#FFCA28"
       offset=".6"
       id="stop1" />
    <stop
       stop-color="#FFB300"
       offset="1"
       id="stop2" />
  </radialGradient>
  <path
     d="m 6.3349902,85.51501 c 0.07,-8.63 0.41,-21.58 1.61,-34.32 0.83,-8.77 2.1399998,-17.83 6.0399998,-24.71 1.1,-1.94 1.37,-4.06 1.6,-5.94 0.1,-0.8 0.19,-1.55 0.34,-2.19 1.15,-4.88 5.37,-8.29 10.26,-8.31 l 32.75,-0.07 c 4.53,-0.01 8.32,3.2200002 9.02,7.6900002 0.01,0.08 0.03,0.15 0.05,0.23 0.18,0.55 4.46,13.69 12.2,23.59 3.64,4.66 9.25,8.65 15,10.68 5.73,2.02 11.98,2.01 17,2 3.24,0 7.27,-0.01 7.86,0.87 1.41,2.14 2.13,4.5 2.13,7.01 0,7.72 -7.05,15.6 -14.23,15.91 -4.98,0.22 -10.86,-1.45 -16.54,-3.06 -6.73,-1.9 -12.54,-3.55 -16.49,-2.06 -0.59,0.22 -0.97,0.78 -0.97,1.4 l 0.25,7.29 v 0.07 c 0,8.16 -6.64,14.8 -14.79,14.81 l -42.21,0.05 c -2.91,0 -5.64,-1.12 -7.6899998,-3.18 a 10.81,10.81 0 0 1 -3.19,-7.69 z"
     fill="url(#IconifyId17ecdb2904d178eab21181)"
     id="path2"
     style="fill:url(#IconifyId17ecdb2904d178eab21181)" />
  <path
     d="m 120.69499,62.04501 c 0,6.86 -6.46,14.13 -12.79,14.41 -4.74,0.21 -10.5,-1.42 -16.07,-3 -6.98,-1.98 -13.01,-3.68 -17.42,-2.02 a 2.998,2.998 0 0 0 -1.94,2.81 v 0.11 l 0.25,7.2 v 0.06 c 0,7.33 -5.96,13.3 -13.3,13.31 l -42.21,0.05 c -2.5,0 -4.86,-0.97 -6.63,-2.74 -1.7699998,-1.77 -2.7499998,-4.12 -2.7499998,-6.63 v -0.08 c 0.07,-8.6 0.41,-21.51 1.6,-34.19 0.8099998,-8.6 2.0899998,-17.48 5.8499998,-24.11 1.25,-2.2 1.54,-4.58 1.78,-6.49 0.09,-0.76 0.18,-1.47 0.32,-2.03 0.99,-4.2 4.61,-7.14 8.8,-7.15 l 32.75,-0.08 c 3.78,-0.01 6.95,2.69 7.53,6.42 0.02,0.15 0.06,0.31 0.11,0.45 0.18,0.56 4.55,13.94 12.45,24.05 3.81,4.87 9.67,9.05 15.68,11.17 5.97,2.11 12.36,2.1 17.5,2.09 2.44,0 5.74,-0.01 6.74,0.41 a 10.97,10.97 0 0 1 1.75,5.98 m 3,0 c 0,-2.65 -0.72,-5.33 -2.38,-7.84 -2.14,-3.24 -15.02,0.27 -25.6,-3.46 -6.35,-2.24 -11.45,-6.51 -14.32,-10.19 -7.66,-9.8 -11.96,-23.12 -11.96,-23.12 -0.81,-5.17 -5.27,-8.9700002 -10.51,-8.9600002 l -32.75,0.08 c -5.64,0.02 -10.41,3.9700002 -11.71,9.4600002 -0.52,2.22 -0.38,5.25 -1.79,7.73 -3.7599998,6.63 -5.2599998,15.13 -6.2199998,25.31 -1.19,12.6 -1.54,25.4 -1.62,34.45 v 0.1 c 0,6.83 5.5399998,12.38 12.3799998,12.37 l 42.21,-0.05 c 9.01,-0.01 16.29,-7.32 16.29,-16.31 v -0.12 l -0.25,-7.24 c 6.64,-2.5 21.58,5.69 32.57,5.21 7.81,-0.35 15.66,-8.68 15.66,-17.42 z"
     fill="#eda600"
     id="path3" />
  <path
     d="m 65.50499,66.11501 c -5,1.88 -12.8,1.9 -17.62,0 -6.96,-2.75 -13.05,-9.48 -14.12,-17.25 -0.26,-1.9 -2.01,-0.77 -1.75,1.12 1.16,8.41 4.57,19.79 12.12,22.75 20.75,8.12 31.62,-1.38 28.38,-5.62 -1.58,-2.04 -4.18,-2.06 -7.01,-1 z"
     fill="#eda600"
     id="path4" />
  <radialGradient
     id="IconifyId17ecdb2904d178eab21182"
     cx="2459.4"
     cy="-319.18"
     r="20.331"
     gradientTransform="matrix(-0.0794,-1.3883,0.6794,-0.0374,481.39499,3505.395)"
     gradientUnits="userSpaceOnUse">
    <stop
       stop-color="#FFCA28"
       offset=".599"
       id="stop4" />
    <stop
       stop-color="#FFB300"
       offset="1"
       id="stop5" />
  </radialGradient>
  <path
     d="m 58.08499,86.27501 c 0,-8.36 1.55,-18.41 8.96,-18.84 2.12,-0.12 3.9,0.52 5.43,1.96 4.02,3.79 6.23,13.1 6.23,26.22 0,4.76 -0.31,8.23 -0.31,8.27 0,0.04 -0.01,0.09 -0.01,0.13 v 0.09 c 0.01,0.14 0.01,0.27 0.01,0.41 0,4.25 -3.83,7.8 -8.72,8.09 -5.06,0.3 -9.38,-3.03 -9.63,-7.42 0,-0.07 -0.01,-0.15 -0.03,-0.22 -0.01,-0.09 -1.93,-9.35 -1.93,-18.69 z"
     fill="url(#IconifyId17ecdb2904d178eab21182)"
     id="path5"
     style="fill:url(#IconifyId17ecdb2904d178eab21182)" />
  <path
     d="m 77.20499,95.62501 c 0,4.68 -0.3,8.1 -0.3,8.13 -0.01,0.09 -0.01,0.18 -0.01,0.27 0,0.06 0,0.12 0.01,0.17 0.01,0.11 0.01,0.22 0.01,0.32 0,3.45 -3.21,6.35 -7.3,6.59 -2.12,0.12 -4.13,-0.48 -5.67,-1.69 -1.44,-1.13 -2.28,-2.67 -2.38,-4.32 -0.01,-0.15 -0.03,-0.3 -0.06,-0.44 -0.02,-0.09 -1.91,-9.22 -1.91,-18.38 0,-5.32 0.62,-9.54 1.84,-12.53 1.68,-4.11 4.06,-4.72 5.7,-4.81 1.71,-0.1 3.08,0.4 4.32,1.56 3.65,3.45 5.75,12.61 5.75,25.13 m 3,0 c 0,-11.42 -1.73,-30.36 -13.25,-29.69 -8.32,0.49 -10.37,10.53 -10.37,20.34 0,9.61 1.97,19 1.97,19 0.31,5.22 5.33,9.18 11.22,8.83 5.7,-0.33 10.13,-4.57 10.13,-9.58 0,-0.17 0,-0.33 -0.01,-0.5 0,0 0.31,-3.51 0.31,-8.4 z"
     fill="#eda600"
     id="path6" />
  <radialGradient
     id="IconifyId17ecdb2904d178eab21183"
     cx="2557.2"
     cy="-508.52"
     r="18.753"
     gradientTransform="matrix(0.00188,-1.6967,0.6804,0.00291,391.06499,4447.695)"
     gradientUnits="userSpaceOnUse">
    <stop
       stop-color="#FFCA28"
       offset=".599"
       id="stop6" />
    <stop
       stop-color="#FFB300"
       offset="1"
       id="stop7" />
  </radialGradient>
  <path
     d="m 39.05499,92.54501 c 0,-10.91 1.83,-23.91 10.57,-23.91 8.74,0 10.57,13 10.57,23.91 0,9.25 -1.35,17.68 -1.36,17.76 -0.01,0.08 -0.02,0.16 -0.02,0.24 0,4.41 -4.66,7.48 -8.84,7.48 -4.41,0 -9.53,-3.27 -9.53,-7.48 0,-0.08 -0.01,-0.16 -0.02,-0.24 -0.02,-0.09 -1.37,-8.52 -1.37,-17.76 z"
     fill="url(#IconifyId17ecdb2904d178eab21183)"
     id="path7"
     style="fill:url(#IconifyId17ecdb2904d178eab21183)" />
  <path
     d="m 58.68499,92.54501 c 0,9.12 -1.33,17.44 -1.34,17.52 -0.03,0.16 -0.04,0.32 -0.04,0.48 0,3.42 -3.88,5.98 -7.34,5.98 -3.61,0 -8.03,-2.76 -8.03,-5.98 0,-0.16 -0.01,-0.32 -0.04,-0.48 -0.01,-0.08 -1.34,-8.41 -1.34,-17.52 0,-6.83 0.72,-12.26 2.15,-16.15 2.06,-5.61 4.94,-6.26 6.92,-6.26 1.99,0 4.86,0.65 6.92,6.26 1.42,3.88 2.14,9.32 2.14,16.15 m 3,0 c 0,-11.93 -2.19,-25.41 -12.07,-25.41 -9.88,0 -12.07,13.47 -12.07,25.41 0,9.49 1.38,18 1.38,18 0,5.16 5.91,8.98 11.03,8.98 5.12,0 10.34,-3.82 10.34,-8.98 0.01,0 1.39,-8.52 1.39,-18 z"
     fill="#eda600"
     id="path8" />
  <radialGradient
     id="IconifyId17ecdb2904d178eab21184"
     cx="2601.3"
     cy="-320.21"
     r="20.446"
     gradientTransform="matrix(0.00626,-1.3069,0.6804,0.00452,216.99699,3502.295)"
     gradientUnits="userSpaceOnUse">
    <stop
       stop-color="#FFCA28"
       offset=".599"
       id="stop8" />
    <stop
       stop-color="#FFB300"
       offset="1"
       id="stop9" />
  </radialGradient>
  <path
     d="m 5.8149902,100.85501 c 0,-4.21 0.33,-25.54 6.7999998,-32 1.13,-1.13 2.35,-1.67 3.73,-1.67 5.25,0.02 8.26,9.01 8.26,24.66 0,5.58 -0.4,9.9 -0.4,9.95 0,0.04 -0.01,0.09 -0.01,0.13 -0.01,2.34 -0.96,4.55 -2.69,6.2 -1.74,1.67 -4.06,2.58 -6.52,2.58 -5.0499998,-0.02 -9.1499998,-3.97 -9.1499998,-8.81 -0.02,-0.07 -0.02,-0.42 -0.02,-1.04 z"
     fill="url(#IconifyId17ecdb2904d178eab21184)"
     id="path9"
     style="fill:url(#IconifyId17ecdb2904d178eab21184)" />
  <path
     d="m 23.09499,91.85501 c 0,5.49 -0.39,9.76 -0.4,9.8 -0.01,0.09 -0.01,0.18 -0.01,0.27 -0.01,1.93 -0.8,3.75 -2.23,5.12 -1.46,1.4 -3.41,2.17 -5.48,2.16 -4.22,-0.01 -7.6599998,-3.29 -7.6599998,-7.34 v -0.07 c 0,-0.02 -0.01,-0.36 -0.01,-0.95 0,-18.15 3.4299998,-28.01 6.3599998,-30.94 1.11,-1.11 2.05,-1.23 2.66,-1.23 4.18,0.03 6.77,8.9 6.77,23.18 m 3,0 c 0,-10.72 -1.44,-26.14 -9.75,-26.16 -11.4599998,-0.04 -12.0299998,29.3 -12.0299998,35.16 0,0.65 0.01,1.01 0.01,1.01 v 0.03 c 0,5.68 4.76,10.29 10.6499998,10.31 5.9,0.02 10.7,-4.58 10.72,-10.27 -0.01,0 0.4,-4.37 0.4,-10.08 z"
     fill="#eda600"
     id="path10" />
  <radialGradient
     id="IconifyId17ecdb2904d178eab21185"
     cx="2578.2"
     cy="-485.68"
     r="18.611"
     gradientTransform="matrix(0.00188,-1.6358,0.6804,0.0028,357.31499,4323.795)"
     gradientUnits="userSpaceOnUse">
    <stop
       stop-color="#FFCA28"
       offset=".599"
       id="stop10" />
    <stop
       stop-color="#FFB300"
       offset="1"
       id="stop11" />
  </radialGradient>
  <path
     d="m 21.68499,97.11501 c 0,-8.99 1.02,-29.89 10.47,-29.89 7.94,0 9.12,15.07 9.12,24.06 0,7.95 -0.88,14.8 -0.89,14.87 -0.01,0.06 -0.01,0.13 -0.01,0.19 0,4.17 -2.06,9.03 -7.87,9.03 -5.5,0 -10.5,-4.3 -10.5,-9.03 v -0.12 c -0.01,-0.04 -0.32,-3.89 -0.32,-9.11 z"
     fill="url(#IconifyId17ecdb2904d178eab21185)"
     id="path11"
     style="fill:url(#IconifyId17ecdb2904d178eab21185)" />
  <path
     d="m 42.76499,91.28501 h -3 c 0,7.83 -0.87,14.61 -0.88,14.67 -0.02,0.13 -0.02,0.26 -0.02,0.39 0,3.64 -1.67,7.53 -6.37,7.53 -4.63,0 -9,-3.66 -9,-7.53 0,-0.08 0,-0.16 -0.01,-0.25 0,-0.04 -0.31,-3.83 -0.31,-8.99 0,-5.45 0.35,-13.24 1.99,-19.41 1.59,-5.95 3.94,-8.97 6.97,-8.97 0.93,0 3.76,0 5.75,6.34 1.24,3.95 1.87,9.4 1.87,16.21 l 3.01,0.01 m 0,0 c 0,-11.56 -1.82,-25.56 -10.62,-25.56 -10.37,0 -11.97,19.4 -11.97,31.39 0,5.36 0.32,9.23 0.32,9.23 0,5.64 5.83,10.53 12,10.53 6.17,0 9.37,-4.89 9.37,-10.53 0,0 0.9,-6.93 0.9,-15.06 z"
     fill="#eda600"
     id="path12" />
  <path
     fill="#eda600"
     d="m 13.10499,27.78501 18.9,-4.79 -17,-2 z"
     id="path13" />
</svg>
