<?xml version="1.0" encoding="iso-8859-1"?>
<!-- Uploaded to: SVG Repo, www.svgrepo.com, Generator: SVG Repo Mixer Tools -->
<svg version="1.1" id="Layer_1" xmlns="http://www.w3.org/2000/svg" xmlns:xlink="http://www.w3.org/1999/xlink" 
	 viewBox="0 0 512.001 512.001" xml:space="preserve">
<path style="fill:#FDCD9F;" d="M393.957,163.163L298.22,121.04H150.439c0,0-10.555,58.058,26.393,58.058l63.33,0.476L29.05,179.098
	c-11.455,0-21.11,12.567-21.11,27.134c0,14.578,9.655,25.641,21.11,25.641l96.859,0.392c-9.888,2.181-17.691,13.657-17.691,26.753
	c0,14.567,9.666,25.631,21.11,25.631c-11.444,0-21.11,12.567-21.11,27.145c0,14.578,9.666,25.641,21.11,25.641
	c-11.444,0-21.11,12.567-21.11,27.134c0,14.578,9.285,26.393,20.74,26.393h237.875l27.123-13.56l36.217-18.106V179.098
	L393.957,163.163z"/>
<polygon style="fill:#EAB892;" points="430.174,179.098 393.957,163.163 393.957,377.402 430.174,359.297 "/>
<polygon style="fill:#3FA9F5;" points="430.174,158.74 430.174,179.098 430.174,275.566 430.174,359.297 430.174,390.962 
	504.06,390.962 504.06,275.566 504.06,158.74 "/>
<polygon style="fill:#0099D9;" points="504.06,158.74 430.174,158.74 430.174,179.098 430.174,275.566 504.06,275.566 "/>
<path d="M422.234,150.8v16.13L299.891,113.1H143.812l-1.185,6.519c-0.068,0.375-1.666,9.305-1.514,20.374
	c0.181,13.057,2.655,23.599,7.366,31.433l-119.43-0.269C13.303,171.158,0,187.22,0,206.232c0,18.831,12.761,33.581,29.018,33.581
	l75.974,0.307c-2.982,5.531-4.714,12.061-4.714,18.897c0,10.603,4.047,19.912,10.495,26.02
	c-6.373,6.495-10.495,16.167-10.495,26.755c0,10.606,4.047,19.917,10.495,26.028c-6.373,6.494-10.495,16.163-10.495,26.747
	c0,18.931,12.866,34.333,28.681,34.333h239.749l53.527-26.759v26.759h89.766V150.8H422.234z M364.959,383.022H128.959
	c-6.939,0-12.801-8.45-12.801-18.453c0-10.985,6.953-19.194,13.17-19.194h42.22v-15.88h-42.22c-7.261,0-13.17-7.94-13.17-17.701
	c0-10.991,6.953-19.205,13.17-19.205h42.22v-15.88h-42.22c-7.261,0-13.17-7.936-13.17-17.691c0-9.74,5.451-17.129,10.753-18.809
	l39.334,0.155l0.062-15.88l-137.258-0.55c-7.262,0-13.17-7.94-13.17-17.701c0-10.985,6.953-19.194,13.153-19.194l211.112,0.476
	l0.077-15.88l-63.391-0.476c-5.757,0-9.89-1.735-13.006-5.461c-7.241-8.657-7.414-25.928-6.422-36.717h139.148l125.684,55.299
	v170.109L364.959,383.022z M496.12,383.022h-58.005V166.68h58.005V383.022z"/>
<rect x="459.172" y="185.122" width="15.88" height="21.11"/>
</svg>