<?xml version="1.0" encoding="UTF-8" standalone="no"?>
<!-- Uploaded to: SVG Repo, www.svgrepo.com, Generator: SVG Repo Mixer Tools -->

<svg
   width="800px"
   height="800px"
   viewBox="0 0 36 36"
   aria-hidden="true"
   role="img"
   class="iconify iconify--twemoji"
   preserveAspectRatio="xMidYMid meet"
   version="1.1"
   id="svg10"
   sodipodi:docname="raise2.svg"
   inkscape:version="1.4.2 (ebf0e940, 2025-05-08)"
   xmlns:inkscape="http://www.inkscape.org/namespaces/inkscape"
   xmlns:sodipodi="http://sodipodi.sourceforge.net/DTD/sodipodi-0.dtd"
   xmlns="http://www.w3.org/2000/svg"
   xmlns:svg="http://www.w3.org/2000/svg">
  <defs
     id="defs10" />
  <sodipodi:namedview
     id="namedview10"
     pagecolor="#ffffff"
     bordercolor="#000000"
     borderopacity="0.25"
     inkscape:showpageshadow="2"
     inkscape:pageopacity="0.0"
     inkscape:pagecheckerboard="0"
     inkscape:deskcolor="#d1d1d1"
     inkscape:zoom="0.0325"
     inkscape:cx="384.61538"
     inkscape:cy="400"
     inkscape:window-width="1224"
     inkscape:window-height="611"
     inkscape:window-x="0"
     inkscape:window-y="25"
     inkscape:window-maximized="0"
     inkscape:current-layer="svg10" />
  <path
     fill="#fa743e"
     d="m 6,27 h 17 v 9 H 2 v -5 a 4,4 0 0 1 4,-4 z"
     id="path1" />
  <path
     fill="#7c533e"
     d="m 18,22 v 6 a 3,3 0 1 1 -6,0 v -6 z"
     id="path2" />
  <path
     fill="#dd551f"
     d="M 7,32 H 6 v 4 h 1 z"
     id="path3" />
  <path
     fill="#0b0200"
     d="m 11.094,1.262 c 2.02,-0.654 6.772,-0.475 7.96,1.069 3.089,0.059 6.713,2.851 7.188,6.535 0.47,3.645 -0.578,5.338 -0.951,8.079 -0.422,3.106 -2.168,4.099 -3.564,4.515 C 19.719,24.114 17.585,24 14,24 7,24 3.666,19.316 3.371,11.361 3.193,6.549 6.016,2.905 11.094,1.262 Z"
     id="path4" />
  <path
     fill="#7c533e"
     d="m 7.091,11.701 c 0.677,-0.938 1.545,-1.693 3.446,-1.96 -0.713,0.327 -1.396,1.455 -1.485,2.079 -0.089,0.624 -0.178,1.129 0.386,0.505 2.26,-2.499 4.722,-1.515 7.162,-3.041 1.704,-1.066 2.223,-2.246 2.223,-2.246 0,0 0.208,1.574 2.792,3.178 0.749,0.465 1.643,1.5 2.139,3.03 C 24.111,14.345 24,15.325 24,17 c 0,4.889 -4.029,9 -9,9 -4.971,0 -9,-4.147 -9,-9 0,-3.041 0.319,-4.229 1.091,-5.299 z"
     id="path5" />
  <path
     fill="#3d2e24"
     d="m 11,22 h 8 c 0,0 -1,2 -4,2 -3,0 -4,-2 -4,-2 z m 3,-2.5 h 2 a 0.5,0.5 0 0 0 0,-1 h -2 a 0.5,0.5 0 0 0 0,1 z"
     id="path6" />
  <path
     d="m 19,16 a 1,1 0 0 0 1,-1 v -1 a 1,1 0 0 0 -2,0 v 1 a 1,1 0 0 0 1,1 z m -8,0 a 1,1 0 0 0 1,-1 v -1 a 1,1 0 0 0 -2,0 v 1 a 1,1 0 0 0 1,1 z"
     fill="#000000"
     id="path7" />
  <path
     fill="#7c533e"
     d="m 20.579,2.935 a 1.283,1.283 0 0 1 1.776,0.367 L 23,4.284 V 2 a 2,2 0 0 1 2,-2 h 4 a 2,2 0 0 1 2,2 v 8 c 0,0 0,1 -1,1 H 24 L 23,10 V 8.957 L 20.211,4.711 a 1.282,1.282 0 0 1 0.368,-1.776 z"
     id="path8" />
  <path
     fill="#583529"
     d="m 29,0 h -1 v 5 h 1 z m -3,0 h -1 v 5 h 1 z"
     id="path9" />
  <path
     fill="#fa743e"
     d="m 24,27 h -3 l 2,9 c 8,0 8,-9 8,-9 V 10 h -8 z"
     id="path10" />
</svg>
