<?xml version="1.0" encoding="UTF-8" standalone="no"?>
<!-- Uploaded to: SVG Repo, www.svgrepo.com, Generator: SVG Repo Mixer Tools -->

<svg
   width="800px"
   height="800px"
   viewBox="0 0 128 128"
   aria-hidden="true"
   role="img"
   class="iconify iconify--noto"
   preserveAspectRatio="xMidYMid meet"
   version="1.1"
   id="svg13"
   sodipodi:docname="strongDisagree copy.svg"
   inkscape:version="1.4.2 (ebf0e940, 2025-05-08)"
   xmlns:inkscape="http://www.inkscape.org/namespaces/inkscape"
   xmlns:sodipodi="http://sodipodi.sourceforge.net/DTD/sodipodi-0.dtd"
   xmlns="http://www.w3.org/2000/svg"
   xmlns:svg="http://www.w3.org/2000/svg">
  <defs
     id="defs13" />
  <sodipodi:namedview
     id="namedview13"
     pagecolor="#ffffff"
     bordercolor="#000000"
     borderopacity="0.25"
     inkscape:showpageshadow="2"
     inkscape:pageopacity="0.0"
     inkscape:pagecheckerboard="0"
     inkscape:deskcolor="#d1d1d1"
     inkscape:zoom="0.1069097"
     inkscape:cx="-332.05593"
     inkscape:cy="439.62334"
     inkscape:window-width="1352"
     inkscape:window-height="673"
     inkscape:window-x="0"
     inkscape:window-y="25"
     inkscape:window-maximized="0"
     inkscape:current-layer="svg13" />
  <radialGradient
     id="IconifyId17ecdb2904d178eab21151"
     cx="51.77"
     cy="31.401"
     r="87.039"
     gradientTransform="matrix(-0.6053477,-0.79596414,-0.62666034,0.47659318,136.91599,134.09889)"
     gradientUnits="userSpaceOnUse">
    <stop
       stop-color="#FFCA28"
       offset=".6"
       id="stop1" />
    <stop
       stop-color="#FFB300"
       offset="1"
       id="stop2" />
  </radialGradient>
  <path
     d="m 109.54006,122.0509 c -2.00118,1.51506 -4.31736,2.36554 -6.87462,2.5331 -1.0517,0.0687 -3.490287,-3.15226 -5.43801,-5.74148 -3.022147,-4.00838 -6.786735,-8.99742 -11.849887,-12.33857 -5.089234,-3.35903 -11.664604,-5.41734 -17.569095,-5.51265 -12.565011,-0.19521 -25.616747,4.31782 -26.171873,4.51234 -0.06788,0.0263 -0.143737,0.0587 -0.213555,0.099 A 9.05,9.05 0 0 1 29.847378,103.05289 L 10.142945,76.893685 C 7.1992663,72.98895 7.3847673,67.568056 10.575307,63.697596 c 0.411745,-0.499866 0.963352,-1.030364 1.540816,-1.59298 1.352083,-1.312124 2.879342,-2.807042 3.770067,-4.861089 3.131209,-7.262226 9.563838,-13.775366 16.054987,-19.730765 9.433016,-8.646723 19.552565,-16.734543 26.390839,-21.999504 2.39184,-1.810829 5.250493,-2.557757 8.128353,-2.15276 2.871824,0.397025 5.426641,1.899493 7.177108,4.211605 l 25.438499,33.68337 c 4.917484,6.511841 3.617504,15.811811 -2.88033,20.73123 l -0.103647,0.07847 -5.931182,4.17685 c -0.494314,0.374238 -0.705383,1.023199 -0.530691,1.618415 1.196311,4.048634 6.018795,7.684875 11.595924,11.903712 4.71815,3.564711 9.59086,7.250726 12.42337,11.33996 4.07879,5.91763 2.04564,16.28692 -4.10936,20.94679 z"
     fill="url(#IconifyId17ecdb2904d178eab21151)"
     id="path2"
     style="fill:url(#IconifyId17ecdb2904d178eab21151)" />
  <path
     d="m 59.295177,16.652917 c 2.001172,-1.515061 4.466318,-2.152209 6.945893,-1.809412 2.479574,0.342796 4.671418,1.630903 6.186479,3.632076 l 25.438498,33.68337 c 4.416483,5.850098 3.260273,14.213409 -2.583789,18.637868 l -0.04784,0.03622 -5.891319,4.146669 -0.0877,0.0664 c -0.988627,0.748476 -1.424774,2.04446 -1.069354,3.242866 1.338434,4.517997 6.333576,8.299459 12.125385,12.669327 4.62181,3.487146 9.4042,7.103568 12.09185,11.001459 3.60365,5.22377 1.7007,14.75447 -3.76864,18.89523 -1.69821,1.28569 -3.65687,2.02855 -5.81608,2.20831 -0.93847,-0.54376 -2.922405,-3.18082 -4.395213,-5.12619 -3.088541,-4.09609 -6.937634,-9.19674 -12.22948,-12.69086 -5.317928,-3.512 -12.193747,-5.66895 -18.370217,-5.75903 -12.829017,-0.19602 -26.134398,4.39616 -26.689524,4.59067 -0.149773,0.0507 -0.287473,0.1173 -0.425173,0.18393 -3.329984,1.78106 -7.404056,0.88947 -9.669755,-2.13632 L 11.334765,75.966289 C 8.8136136,72.61965 8.97255,67.958884 11.723552,64.634416 c 0.368008,-0.441667 0.879752,-0.941985 1.425324,-1.480457 1.377938,-1.344241 3.094382,-3.020016 4.099922,-5.336585 3.024367,-7.005741 9.329657,-13.372304 15.691305,-19.217116 9.385179,-8.610506 19.478872,-16.666209 26.293228,-21.913062 l 0.06185,-0.03428 m -1.810829,-2.39184 -0.07973,0.06036 c -7.165161,5.512441 -17.161018,13.531702 -26.488451,22.085946 -7.536845,6.910135 -13.402275,13.24471 -16.424705,20.236442 -1.126165,2.621116 -3.632465,4.330461 -5.0825136,6.093033 -3.5923747,4.350281 -3.8624128,10.537565 -0.474,15.046296 L 28.645422,103.95034 c 3.140932,4.18184 8.876704,5.44593 13.487566,2.97107 0,0 13.209255,-4.61975 25.652285,-4.41999 4.66635,0.0669 11.149145,1.55563 16.767973,5.26627 9.368017,6.17772 14.344056,18.56536 18.210994,18.32188 3.00317,-0.19158 5.57448,-1.23521 7.68727,-2.83478 6.96822,-5.27554 8.86519,-16.57023 4.42811,-22.99424 C 108.62865,91.208706 93.080999,84.240905 91.066231,77.437942 l 5.92321,-4.170814 0.09567,-0.07243 c 7.167549,-5.426454 8.595349,-15.651011 3.170839,-22.832567 L 74.817452,16.678761 C 70.698672,11.205321 62.92977,10.138423 57.484348,14.261076 Z"
     fill="#eda600"
     id="path3" />
  <path
     d="M 78.566357,74.396407 C 77.047195,69.27522 72.354985,63.044364 67.930755,60.348333 61.537112,56.45919 52.495435,55.666048 45.654707,59.503005 43.982936,60.442571 43.827546,58.365252 45.491344,57.431722 52.896656,53.28021 64.028011,49.129857 70.945212,53.362637 89.944026,65.004887 88.931103,79.405612 83.59494,79.38173 81.014786,79.353391 79.429455,77.292535 78.566357,74.396407 Z"
     fill="#eda600"
     id="path4" />
  <radialGradient
     id="IconifyId17ecdb2904d178eab21152"
     cx="2621.1"
     cy="-453.3"
     r="20.331"
     gradientTransform="matrix(-1.1547904,0.77468722,0.38027411,0.56424704,3309.425,-1719.6125)"
     gradientUnits="userSpaceOnUse">
    <stop
       stop-color="#FFCA28"
       offset=".599"
       id="stop4" />
    <stop
       stop-color="#FFB300"
       offset="1"
       id="stop5" />
  </radialGradient>
  <path
     d="M 110.06174,67.107982 C 99.601423,75.027341 90.836796,78.890994 85.396567,77.967573 83.316988,77.622968 81.732304,76.59012 80.556298,74.821417 76.426381,68.65402 83.511423,61.345923 90.168711,56.305783 c 7.446595,-5.637714 15.988339,-9.696362 16.072169,-9.734741 0.0679,-0.02631 0.1377,-0.06662 0.19351,-0.108876 3.65699,-2.442553 8.91953,-1.008324 11.72857,3.199023 2.72044,4.073746 2.20193,9.270143 -1.18651,11.835484 -0.11162,0.08451 -0.21527,0.162974 -0.33293,0.239507 l -0.0717,0.05432 c -0.0319,0.02414 -0.0718,0.05432 -0.0976,0.08644 -0.0379,0.01617 -2.61737,2.357854 -6.41242,5.231035 z"
     fill="url(#IconifyId17ecdb2904d178eab21152)"
     id="path5"
     style="fill:url(#IconifyId17ecdb2904d178eab21152)" />
  <path
     d="m 91.066153,57.507739 c 7.303085,-5.529064 15.723077,-9.533161 15.806897,-9.57154 0.12973,-0.06059 0.26139,-0.135183 0.38702,-0.217752 1.38385,-0.922264 3.11072,-1.176071 4.88084,-0.710067 1.89427,0.497443 3.59193,1.745783 4.76987,3.500477 2.27742,3.405742 1.91087,7.709442 -0.84772,9.797932 -0.0877,0.0664 -0.1754,0.132794 -0.26117,0.185182 -0.0478,0.03622 -0.10171,0.06446 -0.14157,0.09464 -0.0718,0.05432 -0.14351,0.10865 -0.20923,0.170947 -0.0239,0.01811 -2.56953,2.321638 -6.3008,5.146531 -9.981949,7.557192 -18.552614,11.411968 -23.512442,10.576377 -1.667284,-0.280467 -2.898906,-1.078909 -3.85135,-2.502619 -0.910192,-1.3679 -1.868415,-3.627592 0.394342,-7.447858 1.661472,-2.775538 4.643783,-5.811048 8.885313,-9.022251 m -1.810829,-2.39184 c -7.821317,5.92141 -14.582573,13.624048 -9.957244,20.545213 6.419406,9.589084 22.56413,-0.463988 31.66907,-7.35721 3.8987,-2.951651 6.504,-5.32545 6.504,-5.32545 0.14157,-0.09464 0.26914,-0.191218 0.40467,-0.293832 3.99438,-3.024084 4.70689,-9.107367 1.52338,-13.859027 -3.28419,-4.901206 -9.46356,-6.519294 -13.81248,-3.615608 0.006,0.008 -8.669535,4.105225 -16.331396,9.905914 z"
     fill="#eda600"
     id="path6" />
  <radialGradient
     id="IconifyId17ecdb2904d178eab21153"
     cx="2719.2"
     cy="-648.52"
     r="18.753"
     gradientTransform="matrix(-1.3516102,1.0256433,0.41301608,0.54071281,4045.2275,-2401.277)"
     gradientUnits="userSpaceOnUse">
    <stop
       stop-color="#FFCA28"
       offset=".599"
       id="stop6" />
    <stop
       stop-color="#FFB300"
       offset="1"
       id="stop7" />
  </radialGradient>
  <path
     d="m 96.427264,54.201474 c -8.698325,6.585381 -20.167571,12.973284 -25.443119,6.005057 -5.269512,-6.960254 3.984487,-16.274175 12.682811,-22.859556 7.382813,-5.589425 14.910784,-9.59549 14.980602,-9.635806 0.06982,-0.04032 0.139637,-0.08063 0.20342,-0.128921 3.356552,-2.541197 9.054132,-0.432926 11.716052,3.083078 2.52309,3.332631 2.88826,8.901037 -0.62774,11.562956 -0.0638,0.04829 -0.12153,0.10455 -0.17928,0.160812 -0.0597,0.07027 -5.95791,6.228991 -13.332746,11.81238 z"
     fill="url(#IconifyId17ecdb2904d178eab21153)"
     id="path7"
     style="fill:url(#IconifyId17ecdb2904d178eab21153)" />
  <path
     d="m 84.578407,38.550868 c 7.271194,-5.50492 14.707364,-9.46657 14.777183,-9.506886 0.145673,-0.07266 0.279274,-0.161264 0.406838,-0.257841 2.567242,-1.943623 7.429652,-0.09358 9.614722,2.792573 2.09452,2.766561 2.38946,7.397276 -0.33724,9.461621 -0.12757,0.09658 -0.2491,0.201127 -0.35855,0.321623 -0.0577,0.05626 -5.87237,6.126604 -13.15951,11.643596 -5.445423,4.122654 -10.209252,6.826213 -14.173833,8.034144 -5.716177,1.743853 -7.972805,-0.159967 -9.167952,-1.738581 -1.201183,-1.586588 -2.415311,-4.267128 0.813994,-9.295774 2.236321,-3.474143 6.138926,-7.331821 11.584348,-11.454475 m -1.810829,-2.39184 c -9.51155,7.201063 -18.93698,17.083764 -12.973317,24.96089 5.963663,7.877127 18.02493,1.492548 27.544454,-5.714551 7.566185,-5.728255 13.518055,-11.96522 13.518055,-11.96522 4.11397,-3.114625 4.0027,-9.590189 0.91825,-13.664289 -3.08444,-4.074101 -9.70342,-6.48821 -13.817384,-3.373584 -0.006,-0.008 -7.631843,4.034534 -15.190058,9.756754 z"
     fill="#eda600"
     id="path8" />
  <radialGradient
     id="IconifyId17ecdb2904d178eab21154"
     cx="2763.2"
     cy="-460.57"
     r="20.446"
     gradientTransform="matrix(-1.0381866,0.7938484,0.4142997,0.539741,3135.9024,-1931.7464)"
     gradientUnits="userSpaceOnUse">
    <stop
       stop-color="#FFCA28"
       offset=".599"
       id="stop8" />
    <stop
       stop-color="#FFB300"
       offset="1"
       id="stop9" />
  </radialGradient>
  <path
     d="M 74.386701,26.248806 C 61.901296,35.701332 52.924857,38.721934 49.739961,34.548286 48.906979,33.44804 48.601107,32.149409 48.819954,30.566404 50.057056,21.51472 66.87182,8.3705877 70.228369,5.8293912 70.722683,5.4551532 71.01574,5.2458265 71.01574,5.2458265 74.930384,2.2821032 80.560476,3.174666 83.618614,7.1808851 c 1.492853,1.9552728 2.159729,4.3602829 1.878553,6.7555789 -0.279241,2.381286 -1.459827,4.466643 -3.319427,5.887063 -0.03189,0.02414 -0.07175,0.05432 -0.09761,0.08644 -0.03383,0.03815 -3.252579,2.976731 -7.693429,6.338837 z"
     fill="url(#IconifyId17ecdb2904d178eab21154)"
     id="path9"
     style="fill:url(#IconifyId17ecdb2904d178eab21154)" />
  <path
     d="m 71.13982,7.033284 c 0.478368,-0.3621658 0.755479,-0.5594203 0.763452,-0.5654564 l 0.07175,-0.054325 c 3.205066,-2.4265108 7.896561,-1.6637071 10.451767,1.6947784 1.257444,1.6443339 1.820578,3.663809 1.585656,5.672891 -0.229112,1.967056 -1.20331,3.695477 -2.736025,4.868416 -0.07175,0.05433 -0.14351,0.10865 -0.209229,0.170947 -0.03189,0.02414 -3.18686,2.914434 -7.5719,6.234287 C 62.118105,33.668332 53.47491,36.96343 50.949885,33.644809 50.581683,33.158468 50.109963,32.336591 50.324937,30.781604 50.872347,26.667088 56.66121,17.994835 71.139815,7.0332838 M 69.328991,4.6414439 C 64.65693,8.1785964 41.608792,26.342953 48.55805,35.455637 c 5.039914,6.607289 18.20317,-1.552288 26.742038,-8.016947 4.552469,-3.446611 7.789103,-6.41127 7.789103,-6.41127 4.524451,-3.450485 5.294613,-10.054033 1.71737,-14.7459133 C 81.235355,1.5975997 74.686712,0.5851872 70.158162,4.0136899 Z"
     fill="#eda600"
     id="path10" />
  <radialGradient
     id="IconifyId17ecdb2904d178eab21155"
     cx="2740.2"
     cy="-625.68"
     r="18.611"
     gradientTransform="matrix(-1.3030559,0.98888352,0.41292838,0.54077921,3918.1857,-2347.4143)"
     gradientUnits="userSpaceOnUse">
    <stop
       stop-color="#FFCA28"
       offset=".599"
       id="stop10" />
    <stop
       stop-color="#FFB300"
       offset="1"
       id="stop11" />
  </radialGradient>
  <path
     d="M 84.002397,39.877485 C 76.842823,45.297899 64.101545,53.451569 59.31492,47.129139 53.610809,39.594843 69.658279,26.166176 76.825827,20.739725 c 4.169774,-3.156878 7.418448,-5.227583 7.45034,-5.251727 l 0.09567,-0.07243 c 3.771135,-2.855073 10.217487,-1.464195 13.53734,2.920845 3.506973,4.632197 0.867654,9.214173 -2.449031,11.725189 -0.04784,0.03622 -0.103646,0.07847 -0.145447,0.122659 -0.0377,0.06617 -4.989875,4.906602 -11.312305,9.693227 z"
     fill="url(#IconifyId17ecdb2904d178eab21155)"
     id="path11"
     style="fill:url(#IconifyId17ecdb2904d178eab21155)" />
  <path
     d="m 77.737277,21.943618 c 4.105992,-3.10859 7.322775,-5.15515 7.354667,-5.179294 0.06982,-0.04032 0.1336,-0.08861 0.205356,-0.14293 3.085473,-2.335969 8.641292,-1.061067 11.436005,2.63034 2.836965,3.747216 0.743574,7.426715 -2.158525,9.623854 -0.103647,0.07847 -0.201257,0.164912 -0.298867,0.251354 -0.04977,0.05022 -4.930192,4.836332 -11.172894,9.562596 -5.429477,4.110581 -10.1629,6.904003 -14.052659,8.293598 -6.261975,2.232325 -7.964154,-0.016 -8.525511,-0.757475 -1.834973,-2.423731 -0.839634,-6.112267 2.944443,-10.97142 3.909252,-5.04172 9.922809,-10.02095 14.267985,-13.310623 m -1.810829,-2.39184 c -9.559387,7.237279 -24.060844,20.222954 -17.801412,28.490748 5.311765,7.016064 17.572255,0.01658 26.788812,-6.961148 6.481886,-4.907347 11.463788,-9.807914 11.463788,-9.807914 4.496654,-3.404358 6.463804,-8.907305 2.739536,-13.826523 -3.724271,-4.919218 -11.142015,-6.615709 -15.638674,-3.211351 0,0 -3.286602,2.086876 -7.55205,5.316188 z"
     fill="#eda600"
     id="path12" />
  <path
     fill="#eda600"
     d="M 16.377469,55.755291 23.96672,73.715174 12.110796,61.368633 Z"
     id="path13" />
</svg>
