<?xml version="1.0" ?>
<!-- Uploaded to: SVG Repo, www.svgrepo.com, Generator: SVG Repo Mixer Tools -->
<svg width="800px" height="800px" viewBox="0 0 24 24" version="1.1" xmlns="http://www.w3.org/2000/svg" xmlns:xlink="http://www.w3.org/1999/xlink">
<title/>
<g fill="none" fill-rule="evenodd" id="页面-1" stroke="none" stroke-linecap="round" stroke-linejoin="round" stroke-width="1">
<g id="导航图标" stroke="#212121" stroke-width="1.5" transform="translate(-250.000000, -142.000000)">
<g id="投票" transform="translate(250.000000, 142.000000)">
<g id="编组" transform="translate(2.000000, 2.000000)">
<path d="M0.003834192,8.58665028 C-0.046970808,8.00235028 0.413604192,7.50000028 1.00007419,7.50000028 L2.90934419,7.50000028 C3.46164419,7.50000028 3.90934419,7.94770028 3.90934419,8.50000028 L3.90934419,18.0000003 C3.90934419,18.5523003 3.46164419,19.0000003 2.90934419,19.0000003 L1.82615919,19.0000003 C1.30745419,19.0000003 0.874854192,18.6034003 0.829919192,18.0866503 L0.003834192,8.58665028 Z" id="路径"/>
<path d="M6.90934419,8.18725028 C6.90934419,7.76940028 7.16904419,7.39540028 7.54699419,7.21725028 C8.37124419,6.82870028 9.77579419,6.04690028 10.4093442,4.99025028 C11.2258942,3.62845028 11.3798942,1.16797528 11.4049442,0.604390277 C11.4084442,0.525495277 11.4061942,0.446505277 11.4170442,0.368280277 C11.5523942,-0.607769723 13.4364942,0.532460277 14.1593442,1.73806028 C14.5516442,2.39235528 14.6019442,3.25200028 14.5606942,3.92315028 C14.5165442,4.64125028 14.3059942,5.33495028 14.0994442,6.02415028 L13.6593442,7.49225028 L19.0877942,7.49225028 C19.7509442,7.49225028 20.2303942,8.12590028 20.0501442,8.76405028 L17.3649942,18.2718003 C17.2433442,18.7025503 16.8502442,19 16.4026442,19 L7.90934419,19 C7.35704419,19 6.90934419,18.5523003 6.90934419,18 L6.90934419,8.18725028 Z" id="路径"/>
</g>
</g>
</g>
</g>
</svg>